<?xml version="1.0" encoding="utf-8"?>
<!-- Generator: Adobe Illustrator 22.0.0, SVG Export Plug-In . SVG Version: 6.00 Build 0)  -->
<svg version="1.1" id="Layer_1" xmlns="http://www.w3.org/2000/svg" xmlns:xlink="http://www.w3.org/1999/xlink" x="0px" y="0px"
	 viewBox="0 0 569.4 131.4" style="enable-background:new 0 0 569.4 131.4;" xml:space="preserve">
<style type="text/css">
	.st0{fill:#FFFFFF;stroke:#FFFFFF;stroke-miterlimit:10;}
	.st1{fill:#FFFFFF;}
	.st2{fill:#122E37;}
	.st3{fill:#C12026;}
</style>
<title>headlogo</title>
<path class="st0" d="M30.7,111.8h-7.8v9.4h7.8V118l2.1,0.5v1.6c0.1,0.9-0.1,1.8-0.6,2.5c-0.6,0.5-1.4,0.8-2.2,0.7h-6.5
	c-0.8,0.1-1.6-0.1-2.2-0.6c-0.5-0.8-0.7-1.6-0.6-2.5V113c-0.1-0.9,0.1-1.8,0.6-2.5c0.6-0.5,1.4-0.7,2.1-0.7h6.6
	c0.8-0.1,1.6,0.1,2.2,0.7c0.5,0.8,0.7,1.6,0.6,2.5v1.3l-2.1,0.4L30.7,111.8z"/>
<path class="st0" d="M52.3,113c-0.1-0.9,0.1-1.8,0.6-2.5c0.6-0.5,1.4-0.8,2.2-0.7h8.1c0.8-0.1,1.6,0.2,2.2,0.7
	c0.5,0.7,0.7,1.6,0.6,2.5v7.1c0.1,0.9-0.1,1.8-0.6,2.5c-0.6,0.5-1.4,0.8-2.2,0.7H55c-0.8,0.1-1.6-0.1-2.2-0.7
	c-0.5-0.8-0.7-1.6-0.6-2.5L52.3,113z M54.4,121.2h9.3v-9.4h-9.3L54.4,121.2z"/>
<path class="st0" d="M87.8,112.5c0,0.4,0.1,0.8,0.1,1.2s0,0.8,0,1.2v8.3H86v-13.4h1.6l8.2,8.8c0.2,0.3,0.5,0.5,0.7,0.8
	c0.2,0.3,0.5,0.7,0.7,1c-0.1-0.4-0.1-0.8-0.1-1.2s0-0.8,0-1.3v-8.1h1.9v13.4h-1.5l-8.4-8.9c-0.3-0.3-0.5-0.6-0.8-0.9
	C88.2,113.1,88,112.8,87.8,112.5"/>
<path class="st0" d="M129.2,111.8h-7.8v3.5h7.2c0.8-0.1,1.6,0.1,2.1,0.7c0.5,0.8,0.7,1.6,0.6,2.5v1.6c0.1,0.9-0.1,1.8-0.6,2.5
	c-0.6,0.5-1.4,0.8-2.2,0.7h-6.8c-0.8,0.1-1.6-0.1-2.2-0.7c-0.5-0.7-0.7-1.6-0.6-2.5v-0.4l1.9-0.5v2h8.4v-3.8h-7.2
	c-0.8,0.1-1.6-0.1-2.2-0.7c-0.5-0.8-0.7-1.6-0.6-2.5V113c-0.1-0.9,0.1-1.8,0.6-2.5c0.6-0.5,1.4-0.8,2.2-0.7h6.2
	c0.8-0.1,1.6,0.1,2.1,0.6c0.5,0.7,0.7,1.5,0.6,2.3v0.3l-1.9,0.5V111.8z"/>
<polygon class="st0" points="156.8,111.8 156.8,123.2 154.7,123.2 154.7,111.8 149.4,111.8 149.4,109.8 162.1,109.8 162.1,111.8 "/>
<path class="st0" d="M180.5,123.2v-13.4h9c0.7-0.1,1.3,0.2,1.8,0.6c0.4,0.6,0.6,1.3,0.6,2v3c0.1,0.7-0.1,1.4-0.6,2
	c-0.5,0.4-1.1,0.7-1.8,0.6H188l4.9,5.2h-2.8l-4.4-5.3h-3v5.2L180.5,123.2z M188.6,111.8h-5.9v4.3h5.9c0.3,0,0.7-0.1,0.9-0.3
	c0.2-0.3,0.3-0.7,0.2-1.1v-1.6c0-0.4-0.1-0.7-0.3-1.1C189.2,111.9,188.9,111.7,188.6,111.8"/>
<path class="st0" d="M214,109.8v11.4h8.1v-11.4h2.1v10.2c0.1,0.9-0.1,1.8-0.6,2.5c-0.6,0.5-1.4,0.8-2.2,0.7h-6.9
	c-0.8,0.1-1.6-0.1-2.2-0.7c-0.5-0.7-0.7-1.6-0.6-2.5v-10.2H214z"/>
<path class="st0" d="M254.4,111.8h-7.8v9.4h7.8V118l2.1,0.5v1.6c0.1,0.9-0.1,1.8-0.6,2.5c-0.6,0.5-1.4,0.8-2.2,0.7h-6.6
	c-0.8,0.1-1.6-0.1-2.1-0.6c-0.5-0.8-0.7-1.6-0.6-2.5V113c-0.1-0.9,0.1-1.8,0.6-2.5c0.6-0.5,1.4-0.7,2.1-0.7h6.6
	c0.8-0.1,1.6,0.1,2.2,0.7c0.5,0.7,0.7,1.6,0.6,2.5v1.3l-2.1,0.4L254.4,111.8z"/>
<polygon class="st0" points="281.6,111.8 281.6,123.2 279.5,123.2 279.5,111.8 274.3,111.8 274.3,109.8 286.9,109.8 286.9,111.8 "/>
<rect x="305.3" y="109.9" class="st0" width="2.1" height="13.4"/>
<path class="st0" d="M327.5,113c-0.1-0.9,0.1-1.8,0.6-2.5c0.6-0.5,1.4-0.8,2.2-0.7h8.1c0.8-0.1,1.6,0.2,2.2,0.7
	c0.5,0.8,0.7,1.6,0.6,2.5v7.1c0.1,0.9-0.1,1.8-0.6,2.5c-0.6,0.5-1.4,0.8-2.2,0.7h-8.1c-0.8,0.1-1.6-0.1-2.2-0.7
	c-0.5-0.8-0.7-1.6-0.6-2.5V113z M329.6,121.2h9.4v-9.4h-9.3L329.6,121.2z"/>
<path class="st0" d="M363,112.5c0,0.4,0.1,0.8,0.1,1.2s0,0.8,0,1.2v8.3h-1.9v-13.4h1.6l8.2,8.8c0.2,0.3,0.5,0.5,0.7,0.8
	c0.2,0.3,0.5,0.7,0.6,1c-0.1-0.4-0.1-0.8-0.1-1.2s0-0.8,0-1.3v-8.1h1.9v13.4h-1.4l-8.4-8.9c-0.3-0.3-0.5-0.6-0.8-0.9
	C363.4,113.1,363.2,112.8,363,112.5"/>
<path class="st0" d="M397.6,119.8c0.4,0,0.6,0,0.7,0.2c0.1,0.2,0.1,0.5,0.1,0.7v2.4l-1.9,3.4h-1.1l1.5-3.5H396c-0.2,0-0.3,0-0.4-0.2
	c-0.1-0.2-0.1-0.5-0.1-0.7v-1.4c0-0.2,0-0.5,0.1-0.7c0.1-0.1,0.3-0.2,0.7-0.2L397.6,119.8z"/>
<polygon class="st0" points="445.8,123.2 445.8,106.9 448.1,106.9 448.1,121 458.4,121 458.4,123.2 "/>
<polygon class="st0" points="478.2,123.2 478.2,106.9 480.5,106.9 480.5,121 490.8,121 490.8,123.2 "/>
<path class="st0" d="M522.2,109.1h-9.4V121h9.4v-4.1l2.3,0.6v1.9c0.1,1.1-0.1,2.1-0.7,3.1c-0.7,0.6-1.6,0.9-2.5,0.8h-7.6
	c-0.9,0.1-1.8-0.2-2.5-0.8c-0.5-0.9-0.8-2-0.7-3v-8.6c-0.1-1,0.1-2.1,0.7-3c0.7-0.6,1.6-0.9,2.5-0.8h7.6c0.9-0.1,1.8,0.2,2.5,0.8
	c0.5,0.9,0.8,2,0.7,3.1v1.5l-2.3,0.5V109.1z"/>
<path class="st0" d="M201.6,40.2l15-31.1h4.4l15.3,31H231l-3.3-7.2h-17.9l-3.3,7.3L201.6,40.2z M211.9,28.5h13.7l-6.9-14.8
	L211.9,28.5z"/>
<path class="st0" d="M244.1,40.2V9.2h20.8c1.5-0.1,3,0.4,4.1,1.4c0.8,0.9,1.3,2.5,1.3,4.6v6.9c0,2.1-0.4,3.6-1.3,4.5
	c-1.1,1-2.6,1.5-4.1,1.4h-3.4l11.4,12.2h-6.5L256,28.1h-7v12.2H244.1z M262.7,13.7H249v10h13.8c0.8,0.1,1.6-0.1,2.2-0.6
	c0.5-0.7,0.7-1.6,0.6-2.5v-3.7c0.1-0.9-0.1-1.7-0.6-2.4C264.3,13.9,263.5,13.6,262.7,13.7"/>
<path class="st0" d="M285.4,15c0,0.5,0,1.1,0,1.9c0,1.3,0.1,2.1,0.1,2.5v21h-4V9.2h4l12.9,20.1l11.8-20.1h4.5v31.1h-4.5v-21
	c0-0.8,0-1.5,0.1-2.2s0.1-1.4,0.2-2.1c-0.3,1-0.6,1.8-0.9,2.6c-0.2,0.6-0.5,1.2-0.8,1.7l-9.9,16.1h-1.3l-10.3-15.9
	c-0.4-0.6-0.7-1.3-1-1.9C285.9,16.6,285.6,15.8,285.4,15"/>
<path class="st0" d="M349.5,13.8h-18.1v8H348c2.4,0,4.1,0.5,5,1.5c0.9,1,1.3,3,1.3,5.8v3.8c0,2.9-0.4,4.8-1.3,5.8s-2.5,1.5-5,1.5
	h-15.8c-2.5,0-4.1-0.5-5-1.5c-0.9-1-1.3-3-1.3-5.8v-0.8l4.5-1.1v4.6h19.5v-8.7h-16.7c-2.4,0-4.1-0.5-5-1.5s-1.3-3-1.2-5.8v-2.9
	c0-2.8,0.4-4.8,1.3-5.8s2.5-1.6,5-1.6h14.4c2.4,0,4.1,0.5,5,1.5c0.9,1,1.4,2.8,1.4,5.3v0.8l-4.4,1.1L349.5,13.8z"/>
<polygon class="st0" points="378,13.8 378,40.2 373.1,40.2 373.1,13.8 360.9,13.8 360.9,9.2 390.3,9.2 390.3,13.8 "/>
<path class="st0" d="M397.6,40.2V9.2h20.8c1.5-0.1,3,0.4,4.2,1.4c0.8,0.9,1.3,2.5,1.3,4.6v6.9c0,2.1-0.4,3.6-1.3,4.5
	c-1.1,1-2.6,1.5-4.2,1.4H415l11.4,12.2h-6.5l-10.3-12.2h-7.1v12.2H397.6z M416.2,13.7h-13.8v10h13.8c0.8,0.1,1.6-0.1,2.2-0.6
	c0.5-0.7,0.7-1.6,0.6-2.5v-3.7c0.1-0.9-0.1-1.7-0.6-2.4C417.8,13.9,417,13.6,416.2,13.7"/>
<path class="st0" d="M434.3,16.6c0-2.8,0.5-4.8,1.3-5.8s2.6-1.6,5-1.6h18.7c2.4,0,4.1,0.5,5,1.6c0.9,1,1.3,3,1.3,5.8v16.3
	c0,2.8-0.4,4.8-1.3,5.8c-0.9,1-2.6,1.5-5,1.5h-18.7c-2.5,0-4.1-0.5-5-1.5c-0.9-1-1.3-3-1.3-5.8L434.3,16.6z M439.2,35.6h21.6V13.8
	h-21.6V35.6z"/>
<path class="st0" d="M481.2,15.4c0.1,0.9,0.2,1.8,0.3,2.8s0.1,1.9,0.1,2.8v19.3H477V9.2h3.7l19,20.3c0.6,0.6,1.1,1.2,1.6,1.9
	c0.6,0.8,1.1,1.5,1.5,2.4c-0.1-0.9-0.2-1.9-0.3-2.8s-0.1-1.9-0.1-3V9.2h4.5v31.1h-3.3l-19.4-20.6c-0.7-0.8-1.2-1.5-1.7-2.2
	C482,16.8,481.6,16.1,481.2,15.4"/>
<path class="st0" d="M543.6,13.8h-20.4v21.7h20.4v-8.4H533v-4.2h15.4v10c0,2.8-0.4,4.8-1.3,5.8c-0.9,1-2.6,1.5-5,1.5h-17.5
	c-2.5,0-4.1-0.5-5-1.5c-0.9-1-1.3-3-1.3-5.8V16.6c0-2.8,0.4-4.8,1.3-5.8s2.6-1.6,5-1.6h17.5c2.4,0,4.1,0.5,5,1.5s1.4,2.8,1.4,5.4V17
	l-4.9,1L543.6,13.8z"/>
<path class="st0" d="M199.8,92.5V63.2h20.6c1.5-0.1,3,0.4,4.1,1.4c1,1.3,1.4,2.8,1.3,4.4v3.4c0.1,1.3-0.3,2.5-1,3.5
	c-0.9,0.9-2,1.4-3.2,1.5c1.3,0.1,2.5,0.7,3.3,1.7c0.8,1.1,1.2,2.5,1.1,3.9v3.8c0.1,1.6-0.5,3.2-1.8,4.3c-1.2,1-2.9,1.4-5.3,1.4
	L199.8,92.5z M221.2,72.6v-2.8c0.1-0.7-0.1-1.4-0.6-1.9c-0.6-0.4-1.3-0.6-2.1-0.5h-14.2V75h14.2c0.7,0.1,1.5-0.1,2.1-0.5
	C221.1,74,221.3,73.3,221.2,72.6 M204.5,79.3v8.9h14.2c0.8,0.1,1.6-0.2,2.2-0.7c0.5-0.8,0.7-1.7,0.6-2.6v-2.3
	c0.1-0.9-0.1-1.8-0.6-2.6c-0.6-0.6-1.4-0.8-2.2-0.8H204.5z"/>
<path class="st0" d="M237.8,92.5V63.2h19.7c1.4-0.1,2.9,0.4,3.9,1.3c0.9,1.3,1.3,2.8,1.2,4.3v6.6c0.1,1.5-0.3,3.1-1.2,4.3
	c-1.1,1-2.5,1.4-3.9,1.3h-3.2L265,92.5h-6.2L249.1,81h-6.7v11.5L237.8,92.5z M255.4,67.5h-13V77h13c0.7,0.1,1.5-0.1,2.1-0.6
	c0.4-0.7,0.6-1.5,0.5-2.4v-3.6c0.1-0.8-0.1-1.6-0.6-2.3C256.9,67.6,256.1,67.4,255.4,67.5"/>
<rect x="274.5" y="63.2" class="st0" width="4.6" height="29.3"/>
<path class="st1" d="M307.8,63.2c2,0,3.9,0.2,5.9,0.6c1.4,0.3,2.7,0.9,3.9,1.7c1.7,1.3,3.1,3.1,3.9,5.2c1,2.3,1.4,4.7,1.4,7.2
	c0,4.9-1.2,8.6-3.8,11.1s-6.3,3.7-11.4,3.7h-14.1V63.2H307.8z M307.2,67.5h-9v20.6h9c4,0,6.8-0.8,8.5-2.4c1.7-1.6,2.5-4.3,2.5-8
	s-0.9-6.2-2.5-7.8S311.2,67.5,307.2,67.5"/>
<path class="st0" d="M358.7,67.5h-19.3v20.6h19.3v-8h-10v-4h14.6v9.5c0,2.7-0.4,4.5-1.2,5.5s-2.4,1.4-4.7,1.4h-16.5
	c-2.3,0-3.9-0.5-4.7-1.4c-0.8-1-1.2-2.8-1.3-5.5V70.1c0-2.7,0.4-4.5,1.3-5.5s2.4-1.5,4.7-1.5h16.6c2.3,0,3.8,0.5,4.7,1.5
	c0.9,1,1.3,2.7,1.3,5.1v0.8l-4.6,0.9L358.7,67.5z"/>
<polygon class="st0" points="375,92.5 375,63.2 399.6,63.2 399.6,67.5 379.6,67.5 379.6,75.1 391.7,75.1 391.7,79.4 379.6,79.4 
	379.6,88.2 399.8,88.2 399.8,92.5 "/>
<polygon class="st0" points="410,92.5 410,63.2 434.3,63.2 434.3,67.5 414.6,67.5 414.6,76.6 425.8,76.6 425.8,80.9 414.6,80.9 
	414.6,92.5 "/>
<path class="st0" d="M442.2,70.1c0-2.7,0.4-4.5,1.3-5.5s2.4-1.5,4.7-1.5h17.7c2.3,0,3.9,0.5,4.7,1.5c0.9,1,1.3,2.8,1.3,5.5v15.4
	c0,2.7-0.4,4.5-1.2,5.5s-2.4,1.4-4.7,1.4h-17.7c-2.3,0-3.9-0.5-4.8-1.4s-1.2-2.8-1.2-5.5V70.1z M446.9,88.1h20.4V67.5h-20.4V88.1z"
	/>
<path class="st0" d="M484.1,92.5V63.2h19.6c1.4-0.1,2.9,0.4,3.9,1.3c0.9,1.3,1.3,2.8,1.2,4.3v6.6c0.1,1.5-0.3,3.1-1.2,4.3
	c-1.1,1-2.5,1.4-3.9,1.3h-3.2l10.8,11.5h-6.2L495.4,81h-6.7v11.5L484.1,92.5z M501.7,67.5h-13V77h13c0.7,0.1,1.5-0.1,2.1-0.6
	c0.4-0.7,0.6-1.5,0.5-2.4v-3.6c0.1-0.8-0.1-1.6-0.6-2.3C503.2,67.6,502.5,67.4,501.7,67.5"/>
<path class="st0" d="M536.9,63.2c2,0,3.9,0.2,5.9,0.6c1.4,0.3,2.8,0.9,3.9,1.7c1.7,1.3,3.1,3.1,3.9,5.2c1,2.3,1.4,4.7,1.4,7.2
	c0,4.9-1.2,8.6-3.8,11.1c-2.5,2.4-6.3,3.7-11.3,3.7h-14.1V63.2H536.9z M536.4,67.5h-9v20.6h9c4,0,6.8-0.8,8.5-2.4
	c1.7-1.6,2.5-4.3,2.5-8s-0.8-6.2-2.5-7.8S540.3,67.5,536.4,67.5"/>
<path class="st2" d="M96.5,74.9H40.8c-3.1,0-4.7-1.4-4.7-4.3v-45C36.1,4.9,17.4,5,17.4,5v73.6c0,0-0.4,13.9,12.4,13.9h83.8
	L96.5,74.9z"/>
<path class="st3" d="M174.9,11.3c-2.6-4.1-7.2-6.6-12.1-6.3h-40.7c-1.7-0.1-3.3,0.3-4.7,1.3c-1.4-0.9-3-1.3-4.6-1.3h-42
	c-4,0-7,0.6-9.1,1.9c-3.3,2-5,5.7-5,11.2v48.4h18.8V26.8c0-2.9,1.6-4.4,4.7-4.4h23.3c1.2,0,2.4,0.4,3.4,1.2c0.9,0.8,1.4,1.9,1.3,3.1
	v42.5l18.7,23.1V26.8c0-2.9,1.6-4.4,4.7-4.4h22c1.2,0,2.4,0.4,3.3,1.2c0.9,0.8,1.3,1.9,1.3,3.1v42.2c0,23.5,18.8,23.4,18.8,23.4
	V18.1C177,15.7,176.3,13.3,174.9,11.3"/>
<rect x="199.9" y="48.5" class="st0" width="351.5" height="3"/>
</svg>
