<svg id="Layer_1" data-name="Layer 1" xmlns="http://www.w3.org/2000/svg" viewBox="0 0 569.39 131.37"><defs><style>.cls-1,.cls-2{fill:#fff;}.cls-1{stroke:#fff;stroke-miterlimit:10;}.cls-3{fill:#c12026;}</style></defs><title>headlogo</title><path class="cls-1" d="M30.69,111.82H22.9v9.39h7.79V118l2.11.48v1.58a4,4,0,0,1-.57,2.5,2.8,2.8,0,0,1-2.17.66H23.51a2.8,2.8,0,0,1-2.16-.64,4.05,4.05,0,0,1-.56-2.52V113a4,4,0,0,1,.57-2.53,2.75,2.75,0,0,1,2.15-.65h6.55a2.76,2.76,0,0,1,2.17.67A4,4,0,0,1,32.8,113v1.26l-2.11.42Z"/><path class="cls-1" d="M52.3,113a4,4,0,0,1,.57-2.51,2.79,2.79,0,0,1,2.17-.67H63.1a2.78,2.78,0,0,1,2.16.67,4,4,0,0,1,.58,2.51v7.06a3.93,3.93,0,0,1-.58,2.5,2.79,2.79,0,0,1-2.16.66H55a2.85,2.85,0,0,1-2.18-.65,4,4,0,0,1-.56-2.51Zm2.1,8.2h9.33v-9.39H54.4Z"/><path class="cls-1" d="M87.8,112.51c0,.4.09.79.11,1.19s0,.81,0,1.21v8.32H86v-13.4h1.61l8.19,8.75a8.07,8.07,0,0,1,.69.82,11.33,11.33,0,0,1,.65,1c-.06-.4-.11-.81-.14-1.22s0-.84,0-1.28v-8.09h1.94v13.4H97.47l-8.36-8.88q-.44-.5-.75-.93a8,8,0,0,1-.56-.91"/><path class="cls-1" d="M129.2,111.82h-7.83v3.47h7.16a2.79,2.79,0,0,1,2.15.66,4,4,0,0,1,.57,2.51v1.61a4,4,0,0,1-.56,2.5,2.76,2.76,0,0,1-2.16.66h-6.78a2.8,2.8,0,0,1-2.17-.66,3.94,3.94,0,0,1-.57-2.5v-.37l1.93-.48v2h8.42v-3.77h-7.19a2.8,2.8,0,0,1-2.15-.65,4.09,4.09,0,0,1-.56-2.52V113a4.1,4.1,0,0,1,.56-2.51,2.72,2.72,0,0,1,2.15-.67h6.21a2.86,2.86,0,0,1,2.15.64,3.46,3.46,0,0,1,.59,2.29v.33l-1.92.49Z"/><polygon class="cls-1" points="156.77 111.82 156.77 123.23 154.68 123.23 154.68 111.82 149.41 111.82 149.41 109.83 162.07 109.83 162.07 111.82 156.77 111.82"/><path class="cls-1" d="M180.51,123.23v-13.4h9a2.3,2.3,0,0,1,1.8.61,2.93,2.93,0,0,1,.55,2v3a2.9,2.9,0,0,1-.55,2,2.34,2.34,0,0,1-1.8.6H188l4.92,5.25h-2.82L185.67,118h-3v5.25Zm8.05-11.44h-5.94v4.32h5.94a1.22,1.22,0,0,0,.95-.28,1.7,1.7,0,0,0,.25-1.08v-1.6a1.64,1.64,0,0,0-.26-1.05,1.17,1.17,0,0,0-.94-.31"/><path class="cls-1" d="M214,109.83v11.38h8.15V109.83h2.14v10.24a3.94,3.94,0,0,1-.57,2.5,2.83,2.83,0,0,1-2.17.66h-6.92a2.79,2.79,0,0,1-2.16-.66,3.93,3.93,0,0,1-.58-2.5V109.83Z"/><path class="cls-1" d="M254.4,111.82h-7.8v9.39h7.8V118l2.11.48v1.58a4,4,0,0,1-.58,2.5,2.79,2.79,0,0,1-2.16.66h-6.56a2.79,2.79,0,0,1-2.15-.64,4,4,0,0,1-.56-2.52V113a4,4,0,0,1,.56-2.53,2.76,2.76,0,0,1,2.15-.65h6.56a2.75,2.75,0,0,1,2.16.67,4,4,0,0,1,.58,2.51v1.26l-2.11.42Z"/><polygon class="cls-1" points="281.63 111.82 281.63 123.23 279.53 123.23 279.53 111.82 274.26 111.82 274.26 109.83 286.93 109.83 286.93 111.82 281.63 111.82"/><rect class="cls-1" x="305.32" y="109.86" width="2.1" height="13.38"/><path class="cls-1" d="M327.54,113a4,4,0,0,1,.57-2.51,2.78,2.78,0,0,1,2.16-.67h8.07a2.78,2.78,0,0,1,2.16.67,4,4,0,0,1,.57,2.51v7.06a3.94,3.94,0,0,1-.57,2.5,2.79,2.79,0,0,1-2.16.66h-8.07a2.84,2.84,0,0,1-2.17-.65,4,4,0,0,1-.56-2.51Zm2.1,8.2H339v-9.39h-9.33Z"/><path class="cls-1" d="M363,112.51c0,.4.09.79.11,1.19s0,.81,0,1.21v8.32h-1.94v-13.4h1.61l8.19,8.75a8.07,8.07,0,0,1,.69.82,11.33,11.33,0,0,1,.65,1c-.06-.4-.11-.81-.14-1.22s0-.84,0-1.28v-8.09h1.94v13.4h-1.44l-8.36-8.88q-.44-.5-.75-.93a8,8,0,0,1-.56-.91"/><path class="cls-1" d="M397.59,119.76c.38,0,.6,0,.68.16a1.31,1.31,0,0,1,.12.69V123l-1.86,3.38h-1.15l1.55-3.48H396a.48.48,0,0,1-.43-.17,1.36,1.36,0,0,1-.12-.69v-1.45a1.31,1.31,0,0,1,.12-.7c.07-.1.3-.15.68-.15Z"/><polygon class="cls-1" points="445.78 123.23 445.78 106.91 448.06 106.91 448.06 120.96 458.35 120.96 458.35 123.23 445.78 123.23"/><polygon class="cls-1" points="478.25 123.23 478.25 106.91 480.52 106.91 480.52 120.96 490.81 120.96 490.81 123.23 478.25 123.23"/><path class="cls-1" d="M522.23,109.13H512.8V121h9.43v-4.09l2.27.57v1.93a5.07,5.07,0,0,1-.65,3.06,3.17,3.17,0,0,1-2.51.8h-7.61a3.14,3.14,0,0,1-2.52-.81,5,5,0,0,1-.67-3v-8.6a5,5,0,0,1,.67-3,3.14,3.14,0,0,1,2.52-.81h7.61a3.17,3.17,0,0,1,2.51.8,5.09,5.09,0,0,1,.65,3.06v1.54l-2.27.51Z"/><path class="cls-1" d="M201.62,40.24,216.57,9.19H221l15.31,31.05H231L227.67,33H209.81l-3.31,7.26Zm10.24-11.73h13.73l-6.88-14.78Z"/><path class="cls-1" d="M244.08,40.24V9.19h20.79A5.3,5.3,0,0,1,269,10.61c.84.94,1.27,2.47,1.27,4.59v6.94c0,2.1-.43,3.61-1.27,4.54a5.37,5.37,0,0,1-4.15,1.4h-3.43l11.41,12.16h-6.52L256,28.08h-7V40.24Zm18.64-26.51H249v10h13.75a2.9,2.9,0,0,0,2.21-.65,4,4,0,0,0,.56-2.5V16.88a3.9,3.9,0,0,0-.59-2.43,2.72,2.72,0,0,0-2.18-.72"/><path class="cls-1" d="M285.36,15c0,.46,0,1.08.05,1.86,0,1.29.06,2.11.06,2.47v21h-4V9.19h4l12.87,20.14L310.16,9.19h4.53V40.24h-4.53v-21c0-.77,0-1.5.08-2.22s.12-1.41.22-2.07c-.28,1-.57,1.84-.87,2.59a8.67,8.67,0,0,1-.83,1.7l-9.94,16.06h-1.29l-10.3-15.92a12.79,12.79,0,0,1-1-1.93,17.92,17.92,0,0,1-.86-2.54"/><path class="cls-1" d="M349.53,13.81H331.39v8H348q3.63,0,5,1.52c.88,1,1.32,2.95,1.32,5.81V32.9c0,2.87-.43,4.8-1.29,5.82s-2.53,1.52-5,1.52H332.25q-3.69,0-5-1.52c-.89-1-1.33-2.95-1.33-5.82v-.85l4.47-1.11v4.61h19.5V26.83H333.24q-3.66,0-5-1.53T327,19.49V16.56c0-2.84.44-4.77,1.32-5.81s2.53-1.56,5-1.56h14.38q3.6,0,5,1.5c.92,1,1.37,2.77,1.37,5.3v.75l-4.43,1.14Z"/><polygon class="cls-1" points="378 13.81 378 40.24 373.14 40.24 373.14 13.81 360.93 13.81 360.93 9.19 390.26 9.19 390.26 13.81 378 13.81"/><path class="cls-1" d="M397.59,40.24V9.19h20.78a5.32,5.32,0,0,1,4.16,1.42q1.26,1.41,1.26,4.59v6.94c0,2.1-.42,3.61-1.26,4.54a5.39,5.39,0,0,1-4.16,1.4H415l11.4,12.16h-6.52l-10.3-12.16h-7.06V40.24Zm18.64-26.51H402.47v10h13.76a2.87,2.87,0,0,0,2.2-.65,3.92,3.92,0,0,0,.57-2.5V16.88a3.83,3.83,0,0,0-.6-2.43,2.69,2.69,0,0,0-2.17-.72"/><path class="cls-1" d="M434.33,16.56c0-2.84.45-4.77,1.34-5.81s2.56-1.56,5-1.56h18.67q3.66,0,5,1.56c.89,1,1.34,3,1.34,5.81V32.9q0,4.26-1.32,5.8c-.89,1-2.56,1.54-5,1.54H440.68q-3.72,0-5-1.52c-.87-1-1.31-2.95-1.31-5.82Zm4.89,19h21.59V13.81H439.22Z"/><path class="cls-1" d="M481.17,15.42c.12.9.21,1.82.27,2.75s.09,1.86.09,2.79V40.24H477V9.19h3.72l19,20.28a19,19,0,0,1,1.59,1.9,21,21,0,0,1,1.5,2.36c-.14-.93-.24-1.87-.31-2.83s-.1-1.94-.1-3V9.19h4.49V40.24h-3.33L484.21,19.67q-1-1.14-1.74-2.16a18.5,18.5,0,0,1-1.3-2.09"/><path class="cls-1" d="M543.56,13.81H523.13V35.55h20.43V27.11H533V22.89h15.42v10q0,4.26-1.32,5.8c-.89,1-2.56,1.54-5,1.54H524.59q-3.69,0-5-1.52c-.88-1-1.32-2.95-1.32-5.82V16.56c0-2.84.44-4.77,1.34-5.81s2.56-1.56,5-1.56H542.1c2.4,0,4.06.52,5,1.54s1.37,2.83,1.37,5.4V17l-4.88,1Z"/><path class="cls-1" d="M199.84,92.52V63.17h20.64a5.33,5.33,0,0,1,4.08,1.37,6.3,6.3,0,0,1,1.27,4.38V72.3a5.35,5.35,0,0,1-1,3.53,4.91,4.91,0,0,1-3.24,1.51,4.67,4.67,0,0,1,3.29,1.74A6.32,6.32,0,0,1,226,83v3.75a5.23,5.23,0,0,1-1.75,4.33q-1.74,1.43-5.32,1.42Zm21.4-19.88V69.87a2.53,2.53,0,0,0-.56-1.88,3.06,3.06,0,0,0-2.06-.52H204.46V75h14.16a3.07,3.07,0,0,0,2.11-.51,2.62,2.62,0,0,0,.51-1.86M204.46,79.3v8.93h14.16a2.7,2.7,0,0,0,2.18-.73,4.09,4.09,0,0,0,.61-2.59V82.62a4.08,4.08,0,0,0-.62-2.57,2.68,2.68,0,0,0-2.17-.75Z"/><path class="cls-1" d="M237.77,92.52V63.17h19.66a5.06,5.06,0,0,1,3.93,1.34,6.47,6.47,0,0,1,1.19,4.34v6.56a6.35,6.35,0,0,1-1.19,4.3A5.09,5.09,0,0,1,257.43,81h-3.24L265,92.52h-6.16L249.07,81h-6.68v11.5Zm17.63-25h-13v9.46h13a2.7,2.7,0,0,0,2.08-.61A3.68,3.68,0,0,0,258,74V70.44a3.67,3.67,0,0,0-.56-2.3,2.58,2.58,0,0,0-2.06-.67"/><rect class="cls-1" x="274.5" y="63.24" width="4.59" height="29.28"/><path class="cls-2" d="M307.76,63.17a26.36,26.36,0,0,1,5.87.56,10.47,10.47,0,0,1,3.92,1.71,12.53,12.53,0,0,1,3.92,5.15,18,18,0,0,1,1.41,7.19q0,7.41-3.75,11.07t-11.37,3.67H293.68V63.17Zm-.51,4.36h-9V88.09h9q6,0,8.49-2.41c1.68-1.62,2.52-4.27,2.52-8s-.85-6.2-2.55-7.79-4.52-2.39-8.46-2.39"/><path class="cls-1" d="M358.67,67.53H339.35V88.09h19.32v-8h-10v-4h14.58v9.47c0,2.68-.41,4.51-1.25,5.48s-2.42,1.45-4.74,1.45H340.73q-3.5,0-4.74-1.44t-1.26-5.49V70.14c0-2.68.43-4.52,1.27-5.5s2.42-1.47,4.73-1.47h16.56c2.27,0,3.83.49,4.7,1.46s1.29,2.67,1.29,5.1v.85l-4.61.94Z"/><polygon class="cls-1" points="375 92.52 375 63.17 399.61 63.17 399.61 67.53 379.62 67.53 379.62 75.08 391.67 75.08 391.67 79.44 379.62 79.44 379.62 88.23 399.84 88.23 399.84 92.52 375 92.52"/><polygon class="cls-1" points="410.01 92.52 410.01 63.17 434.33 63.17 434.33 67.53 414.63 67.53 414.63 76.6 425.75 76.6 425.75 80.89 414.63 80.89 414.63 92.52 410.01 92.52"/><path class="cls-1" d="M442.23,70.14c0-2.68.42-4.52,1.26-5.5s2.43-1.47,4.73-1.47h17.66c2.31,0,3.88.49,4.73,1.47s1.26,2.82,1.26,5.5V85.59c0,2.68-.41,4.51-1.25,5.48s-2.42,1.45-4.74,1.45H448.22c-2.34,0-3.93-.48-4.75-1.44s-1.24-2.78-1.24-5.49Zm4.62,18h20.41V67.53H446.85Z"/><path class="cls-1" d="M484.1,92.52V63.17h19.65a5.06,5.06,0,0,1,3.93,1.34,6.41,6.41,0,0,1,1.2,4.34v6.56a6.3,6.3,0,0,1-1.2,4.3A5.09,5.09,0,0,1,503.75,81h-3.23l10.78,11.5h-6.17L495.39,81h-6.67v11.5Zm17.63-25h-13v9.46h13a2.72,2.72,0,0,0,2.08-.61,3.69,3.69,0,0,0,.53-2.36V70.44a3.61,3.61,0,0,0-.56-2.3,2.56,2.56,0,0,0-2-.67"/><path class="cls-1" d="M536.9,63.17a26.3,26.3,0,0,1,5.87.56,10.59,10.59,0,0,1,3.93,1.71,12.51,12.51,0,0,1,3.91,5.15A18,18,0,0,1,552,77.78q0,7.41-3.75,11.07T536.9,92.52H522.82V63.17Zm-.51,4.36h-8.95V88.09h8.95q6,0,8.49-2.41c1.68-1.62,2.52-4.27,2.52-8s-.85-6.2-2.55-7.79-4.52-2.39-8.46-2.39"/><path class="cls-3" d="M96.47,74.92H40.76q-4.65,0-4.65-4.35v-45C36.11,4.93,17.38,5,17.38,5V78.55s-.44,13.9,12.42,13.9h83.75Z"/><path class="cls-3" d="M174.93,11.34A13.55,13.55,0,0,0,162.86,5h-40.7a7,7,0,0,0-4.65,1.32A8.88,8.88,0,0,0,112.87,5h-42c-4,0-7,.6-9.12,1.87-3.32,2-5,5.71-5,11.25V66.55H75.51V26.84c0-2.91,1.56-4.35,4.66-4.35h23.29a4.74,4.74,0,0,1,3.36,1.22,4.07,4.07,0,0,1,1.33,3.13V69.36l18.74,23.09V26.84c0-2.91,1.56-4.35,4.69-4.35h22a4.73,4.73,0,0,1,3.34,1.22,4.13,4.13,0,0,1,1.31,3.13V69.07c0,23.52,18.76,23.38,18.76,23.38V18.1a11.94,11.94,0,0,0-2-6.76"/><rect class="cls-1" x="199.86" y="48.47" width="351.51" height="2.96"/></svg>