<svg id="Layer_1" data-name="Layer 1" xmlns="http://www.w3.org/2000/svg" viewBox="0 0 632.52 169.84"><defs><style>.cls-1,.cls-2{fill:#fff;stroke:#fff;}.cls-1{stroke-miterlimit:10;}.cls-2{stroke-width:4.66px;}</style></defs><title>navbar</title><path class="cls-1" d="M145.23,131.3H45.47q-8.32,0-8.33-7.8V43C37.14,6,3.59,6,3.59,6V137.79s-.77,24.89,22.25,24.89h150Z"/><path class="cls-1" d="M285.75,17.43C280.74,9.79,273.53,6,264.13,6H191.25c-3.71,0-6.49.8-8.33,2.37A16,16,0,0,0,174.6,6H99.44c-7.18,0-12.6,1.09-16.32,3.36q-8.94,5.28-9,20.15V116.3h33.55V45.18q0-7.8,8.33-7.79h41.71a8.51,8.51,0,0,1,6,2.19,7.28,7.28,0,0,1,2.38,5.6v76.17l33.56,41.33V45.18c0-5.2,2.79-7.79,8.41-7.79H247.5a8.5,8.5,0,0,1,6,2.19,7.38,7.38,0,0,1,2.34,5.6v75.64c0,42.11,33.59,41.86,33.59,41.86V29.54a21.37,21.37,0,0,0-3.66-12.11"/><path class="cls-2" d="M354.39,128.33,397.11,39.6h12.77l43.76,88.73H438.48l-9.62-20.75H377.79l-9.44,20.75ZM383.67,94.8H422.9L403.24,52.58Z"/><path class="cls-1" d="M354.39,128.33,397.11,39.6h12.77l43.76,88.73H438.48l-9.62-20.75H377.79l-9.44,20.75ZM383.67,94.8H422.9L403.24,52.58Z"/><path class="cls-2" d="M550.63,128.33V44.44h59c5.36,0,9.26,1.3,11.67,3.91s3.62,6.78,3.62,12.52v9.67q0,6.66-2.9,10.09t-9.25,4.3q6.19.78,9.41,5t3.23,11.27V111.9q0,8.32-5,12.37t-15.21,4.06ZM611.8,71.5V63.57c0-2.57-.53-4.36-1.61-5.36s-3-1.5-5.87-1.5H563.83V78.27h40.49c3,0,5.07-.49,6-1.45s1.45-2.74,1.45-5.32m-48,19v25.52h40.49q4.5,0,6.24-2.08c1.15-1.38,1.73-3.85,1.73-7.39V100q0-5.22-1.77-7.35c-1.19-1.42-3.25-2.13-6.2-2.13Z"/><path class="cls-1" d="M550.63,128.33V44.44h59c5.36,0,9.26,1.3,11.67,3.91s3.62,6.78,3.62,12.52v9.67q0,6.66-2.9,10.09t-9.25,4.3q6.19.78,9.41,5t3.23,11.27V111.9q0,8.32-5,12.37t-15.21,4.06ZM611.8,71.5V63.57c0-2.57-.53-4.36-1.61-5.36s-3-1.5-5.87-1.5H563.83V78.27h40.49c3,0,5.07-.49,6-1.45s1.45-2.74,1.45-5.32m-48,19v25.52h40.49q4.5,0,6.24-2.08c1.15-1.38,1.73-3.85,1.73-7.39V100q0-5.22-1.77-7.35c-1.19-1.42-3.25-2.13-6.2-2.13Z"/><rect class="cls-1" x="489.12" y="42.54" width="1.56" height="87.7"/></svg>