<svg id="Layer_1" data-name="Layer 1" xmlns="http://www.w3.org/2000/svg" viewBox="0 0 575.36 543.46"><defs><style>.cls-1,.cls-2{fill:#fff;stroke:#fff;}.cls-1{stroke-miterlimit:10;}.cls-2{stroke-width:4.66px;}</style></defs><title>stacked</title><path class="cls-1" d="M283.28,250.1H93.71c-10.54,0-15.84-4.94-15.84-14.82v-153c0-70.33-63.74-70.18-63.74-70.18V262.43s-1.47,47.31,42.28,47.31h285Z"/><path class="cls-1" d="M550.29,33.73c-9.51-14.52-23.22-21.66-41.08-21.66H370.71c-7,0-12.32,1.52-15.81,4.49a30.55,30.55,0,0,0-15.81-4.49H196.26c-13.64,0-23.94,2.06-31,6.37q-17,10.05-17,38.3V221.59H212V86.46c0-9.89,5.29-14.8,15.84-14.8h79.25a16.15,16.15,0,0,1,11.44,4.15A13.84,13.84,0,0,1,323,86.46V231.18l63.77,78.56V86.46c0-9.89,5.3-14.8,16-14.8h74.84A16.16,16.16,0,0,1,489,75.81a14.08,14.08,0,0,1,4.44,10.65V230.18c0,80,63.84,79.56,63.84,79.56v-253a40.52,40.52,0,0,0-7-23"/><path class="cls-2" d="M28.19,534.22l81.19-168.61h24.26l83.14,168.61H188l-18.28-39.43H72.66L54.72,534.22Zm55.63-63.71h74.56L121,390.28Z"/><path class="cls-1" d="M28.19,534.22l81.19-168.61h24.26l83.14,168.61H188l-18.28-39.43H72.66L54.72,534.22Zm55.63-63.71h74.56L121,390.28Z"/><path class="cls-2" d="M401.1,534.22V374.8H513.21q15.28,0,22.17,7.43T542.27,406v18.37q0,12.67-5.51,19.19t-17.59,8.17c7.85,1,13.82,4.15,17.89,9.46s6.13,12.46,6.13,21.41V503q0,15.81-9.49,23.51t-28.9,7.71Zm116.23-108V411.17c0-4.9-1-8.29-3.05-10.2s-5.76-2.85-11.16-2.85H426.18v41h76.94c5.8,0,9.63-.92,11.46-2.75s2.75-5.2,2.75-10.11m-91.15,36.19V510.9h76.94q8.55,0,11.85-3.95t3.28-14.05V480.41q0-9.92-3.36-14t-11.77-4Z"/><path class="cls-1" d="M401.1,534.22V374.8H513.21q15.28,0,22.17,7.43T542.27,406v18.37q0,12.67-5.51,19.19t-17.59,8.17c7.85,1,13.82,4.15,17.89,9.46s6.13,12.46,6.13,21.41V503q0,15.81-9.49,23.51t-28.9,7.71Zm116.23-108V411.17q0-7.35-3.05-10.2c-2-1.89-5.76-2.85-11.16-2.85H426.18v41h76.94c5.8,0,9.63-.92,11.46-2.75s2.75-5.2,2.75-10.11m-91.15,36.19V510.9h76.94q8.55,0,11.85-3.95t3.28-14.05V480.41q0-9.92-3.36-14t-11.77-4Z"/><rect class="cls-1" x="284.21" y="371.19" width="2.96" height="166.65"/></svg>